<?xml version="1.0" encoding="utf-8"?>
<svg xmlns="http://www.w3.org/2000/svg" width="120" height="40" viewBox="0 0 120 40">
  <g fill="none" fill-rule="evenodd">
    <rect width="120" height="40" fill="#A6A6A6" rx="6.75"/>
    <path fill="#000" d="M110.13525,0 L9.53468,0 C9.16798,0 8.80568,0.002 8.43902,0.00598 C8.13185,0.0094 7.82436,0.01854 7.51747,0.0291 C6.8291,0.05369 6.14527,0.116352 5.47898,0.216675 C4.80491,0.323781 4.15677,0.513812 3.55443,0.781774 C2.95254,1.0577 2.40908,1.42432 1.94612,1.86395 C1.50092,2.32466 1.13159,2.86487 0.85562,3.46282 C0.58313,4.06188 0.39677,4.70602 0.29393,5.37573 C0.19116,6.03963 0.12732,6.71994 0.10046,7.40584 C0.07511,7.71016 0.06678,8.01569 0.05588,8.32203 C0.01946,8.68869 0,9.05637 0,9.42306 L0,30.5769 C0,30.9441 0.01946,31.3107 0.05588,31.6774 C0.06678,31.9837 0.07511,32.2898 0.10046,32.5936 C0.12732,33.2795 0.19116,33.9598 0.29393,34.6237 C0.39723,35.2939 0.58359,35.9383 0.85562,36.5372 C1.13116,37.1346 1.50041,37.6746 1.94612,38.136 C2.40767,38.5773 2.95147,38.9451 3.55443,39.2176 C4.15677,39.4856 4.80491,39.6756 5.47898,39.7827 C6.14527,39.883 6.8291,39.9457 7.51747,39.9703 C7.82436,39.9809 8.13185,39.99 8.43902,39.9934 C8.80568,39.9974 9.16798,40 9.53468,40 L110.13525,40 C110.49657,40 110.86065,39.9974 111.22161,39.9934 C111.52878,39.99 111.83449,39.9809 112.14293,39.9703 C112.83131,39.9457 113.51513,39.883 114.18142,39.7827 C114.85642,39.6755 115.50518,39.4855 116.10597,39.2176 C116.70893,38.9451 117.25273,38.5773 117.71428,38.136 C118.15998,37.6746 118.52924,37.1346 118.80478,36.5372 C119.07681,35.9383 119.26317,35.2939 119.36647,34.6237 C119.46924,33.9598 119.53308,33.2795 119.55994,32.5936 C119.56906,32.2898 119.57739,31.9837 119.58829,31.6774 C119.62471,31.3107 119.64,30.9441 119.64,30.5769 L119.64,9.42306 C119.64,9.05637 119.62471,8.68869 119.58829,8.32203 C119.57739,8.01569 119.56906,7.71016 119.55994,7.40584 C119.53308,6.71994 119.46924,6.03963 119.36647,5.37573 C119.26317,4.70602 119.07681,4.06188 118.80478,3.46282 C118.52881,2.86487 118.15948,2.32466 117.71428,1.86395 C117.25132,1.42432 116.70786,1.0577 116.10597,0.781774 C115.50363,0.513812 114.85549,0.323781 114.18142,0.216675 C113.51513,0.116352 112.83131,0.05369 112.14293,0.0291 C111.83449,0.01854 111.52878,0.0094 111.22161,0.00598 C110.86065,0.002 110.49657,0 110.13525,0 Z"/>
    <path fill="#FFF" d="M8.44483,39.125 C8.14178,39.125 7.84041,39.1164 7.54261,39.1091 C6.89303,39.0867 6.24619,39.0308 5.61212,38.9436 C5.01805,38.8455 4.45085,38.6566 3.92647,38.3872 C3.40217,38.1222 2.9304,37.7562 2.53193,37.3105 C2.08432,36.9044 1.71636,36.4295 1.44616,35.9023 C1.18079,35.3755 1.01095,34.8057 0.94315,34.2155 C0.85131,33.5866 0.78962,32.9447 0.76611,32.3007 C0.76183,32.2272 0.75367,31.9609 0.75367,31.9609 L0.75367,8.03198 C0.75367,8.03198 0.76183,7.76935 0.76611,7.69946 C0.78962,7.05552 0.85131,6.41361 0.94315,5.78473 C1.01095,5.19451 1.18079,4.62465 1.44616,4.09792 C1.71636,3.57071 2.08432,3.09578 2.53193,2.68969 C2.9304,2.24399 3.40217,1.87801 3.92647,1.61296 C4.45085,1.34356 5.01805,1.15467 5.61212,1.05655 C6.24619,0.969353 6.89303,0.913497 7.54261,0.891076 L8.44483,0.875 L111.21643,0.875 L112.11664,0.891076 C112.76618,0.913497 113.41302,0.969353 114.0471,1.05655 C114.64117,1.15467 115.20946,1.34356 115.73376,1.61296 C116.25807,1.87801 116.72984,2.24399 117.12831,2.68969 C117.57592,3.09578 117.94388,3.57071 118.21408,4.09792 C118.47945,4.62465 118.64929,5.19451 118.71709,5.78473 C118.80892,6.41361 118.87061,7.05552 118.89413,7.69946 C118.89841,7.77283 118.90657,8.03198 118.90657,8.03198 L118.90657,31.9609 C118.90657,31.9609 118.89841,32.2272 118.89413,32.3007 C118.87061,32.9447 118.80892,33.5866 118.71709,34.2155 C118.64929,34.8057 118.47945,35.3755 118.21408,35.9023 C117.94388,36.4295 117.57592,36.9044 117.12831,37.3105 C116.72984,37.7562 116.25807,38.1222 115.73376,38.3872 C115.20946,38.6566 114.64117,38.8455 114.0471,38.9436 C113.41302,39.0308 112.76618,39.0867 112.11664,39.1091 C111.81884,39.1164 111.51747,39.125 111.21643,39.125 L8.44483,39.125 Z"/>
    <path fill="#000" d="M24.76888,20.30068 C24.74425,16.79381 27.61493,14.94901 27.73958,14.87512 C26.24081,12.72732 23.92485,12.37362 23.08689,12.35773 C21.11302,12.15954 19.20235,13.45441 18.19943,13.45441 C17.1784,13.45441 15.60782,12.37701 13.9167,12.40529 C11.7399,12.43264 9.7012,13.63767 8.58961,15.48127 C6.30563,19.22069 8.03386,24.89482 10.22661,28.34126 C11.31614,30.01991 12.6073,31.9145 14.31043,31.8604 C15.96946,31.8007 16.59797,30.8039 18.56646,30.8039 C20.51686,30.8039 21.10732,31.8604 22.83007,31.827 C24.61186,31.8007 25.7371,30.10985 26.78886,28.41682 C28.06022,26.4736 28.57486,24.57148 28.59949,24.47175 C28.55674,24.45586 24.79444,23.03366 24.76888,20.30068 Z"/>
    <path fill="#000" d="M22.03725,10.1375 C22.93084,9.02841 23.51869,7.57376 23.33633,6.09652 C22.09382,6.15129 20.51558,6.97469 19.58657,8.06096 C18.76078,9.01128 18.04597,10.5189 18.25381,11.9328 C19.65333,12.0358 21.10639,11.2292 22.03725,10.1375 Z"/>
    <g transform="translate(42.25 18.125)">
      <path fill="#FFF" d="M11.78978,3.27339 C11.78978,5.41143 10.85828,6.97712 9.26655,6.97712 C7.63943,6.97712 6.65873,5.36865 6.65873,3.30047 C6.65873,1.19521 7.66651,0.0371094 9.26655,0.0371094 C10.86667,0.0371094 11.78978,1.19521 11.78978,3.27339 Z M7.55476,3.27339 C7.55476,4.81199 8.23022,6.17383 9.26655,6.17383 C10.30288,6.17383 10.97834,4.81199 10.97834,3.27339 C10.97834,1.73479 10.30288,0.840332 9.26655,0.840332 C8.23022,0.840332 7.55476,1.73479 7.55476,3.27339 Z"/>
      <path fill="#FFF" d="M0,0.188477 L0.8198,0.188477 L0.8198,6.09668 L3.9989,6.09668 L3.9989,6.82617 L0,6.82617 L0,0.188477 Z"/>
      <path fill="#FFF" d="M13.293,6.82617 L12.4732,6.82617 L12.4732,0.188477 L13.293,0.188477 L13.293,6.82617 Z"/>
      <path fill="#FFF" d="M18.0185,5.02246 C18.0185,5.57129 17.9934,6.00293 17.9346,6.82617 L17.1736,6.82617 L17.1316,5.91797 L17.1064,5.91797 C16.8608,6.5 16.3036,6.97705 15.5426,6.97705 C14.5499,6.97705 13.9255,6.19336 13.9255,5.14453 C13.9255,3.64355 15.0132,2.87549 17.0644,2.88379 L17.0644,2.75391 C17.0644,2.14258 16.8608,1.35059 15.7563,1.35059 C15.2159,1.35059 14.6754,1.52832 14.2689,1.78418 L14.0485,1.10352 C14.5163,0.80566 15.1666,0.644531 15.8169,0.644531 C17.4608,0.644531 17.9346,1.7334 17.9346,2.92656 L17.9346,5.02246 L18.0185,5.02246 Z M17.0812,3.60938 C15.7563,3.59277 14.8332,3.9668 14.8332,5.05898 C14.8332,5.74805 15.2663,6.17969 15.8337,6.17969 C16.5931,6.17969 17.0644,5.57666 17.0644,4.84717 L17.0644,3.60938 L17.0812,3.60938 Z"/>
      <path fill="#FFF" d="M19.5957,0.188477 L20.4155,0.188477 L20.4155,3.05957 L20.4407,3.05957 C20.5498,2.83789 20.7282,2.63281 20.9486,2.47168 C21.169,2.31055 21.4482,2.21777 21.7526,2.21777 C22.5052,2.21777 23.3166,2.78223 23.3166,4.15137 L23.3166,6.82617 L22.4968,6.82617 L22.4968,4.25244 C22.4968,3.39209 22.1253,2.9375 21.5008,2.9375 C21.0439,2.9375 20.6626,3.21973 20.4911,3.63574 C20.4323,3.77393 20.4155,3.94336 20.4155,4.11279 L20.4155,6.82617 L19.5957,6.82617 L19.5957,0.188477 Z"/>
      <path fill="#FFF" d="M30.1758,0.188477 L30.1758,5.76074 C30.1758,6.13281 30.1758,6.55713 30.2094,6.82617 L29.4652,6.82617 L29.4232,5.91797 L29.398,5.91797 C29.1272,6.5 28.5114,6.97705 27.6832,6.97705 C26.4926,6.97705 25.5695,5.93652 25.5695,4.23584 C25.5695,2.36426 26.5758,1.35059 27.7496,1.35059 C28.5114,1.35059 29.0518,1.73828 29.2722,2.18555 L29.2974,2.18555 L29.2974,0.188477 L30.1758,0.188477 Z M29.2974,3.27344 C29.2974,3.13525 29.2806,3.00537 29.2554,2.88379 C29.1104,2.38867 28.6535,2.02393 28.0878,2.02393 C27.2756,2.02393 26.4654,2.70469 26.4654,4.19238 C26.4654,5.53857 27.1913,6.27637 28.0626,6.27637 C28.6535,6.27637 29.1356,5.89599 29.2638,5.33154 C29.2974,5.21826 29.3142,5.08838 29.3142,4.95019 L29.3142,3.27344 L29.2974,3.27344 Z"/>
      <path fill="#FFF" d="M37.0044,4.15137 C37.0044,6.03516 35.7802,6.97705 34.5896,6.97705 C33.2983,6.97705 32.2552,5.93652 32.2552,4.23584 C32.2552,2.43408 33.3487,1.35059 34.6736,1.35059 C36.0153,1.35059 37.0044,2.40869 37.0044,4.15137 Z M33.1511,4.19238 C33.1511,5.46436 33.8266,6.30908 34.6232,6.30908 C35.4186,6.30908 36.1085,5.47266 36.1085,4.15137 C36.1085,3.05957 35.6012,2.01904 34.6316,2.01904 C33.6621,2.01904 33.1511,3.01709 33.1511,4.19238 Z"/>
      <path fill="#FFF" d="M38.1761,2.36426 L38.1761,5.02246 C38.1761,5.57129 38.1761,6.00293 38.2181,6.82617 L37.4571,6.82617 L37.4151,5.91797 L37.3899,5.91797 C37.1443,6.5 36.5871,6.97705 35.8261,6.97705 C34.8334,6.97705 34.209,6.19336 34.209,5.14453 C34.209,3.64355 35.2967,2.87549 37.3479,2.88379 L37.3479,2.75391 C37.3479,2.14258 37.1443,1.35059 36.0398,1.35059 C35.4994,1.35059 34.9589,1.52832 34.5524,1.78418 L34.332,1.10352 C34.7998,0.80566 35.4501,0.644531 36.1004,0.644531 C37.7443,0.644531 38.2181,1.7334 38.2181,2.92656 L38.2181,2.36426 L38.1761,2.36426 Z M37.3647,3.60938 C36.0398,3.59277 35.1167,3.9668 35.1167,5.05898 C35.1167,5.74805 35.5498,6.17969 36.1172,6.17969 C36.8766,6.17969 37.3479,5.57666 37.3479,4.84717 L37.3479,3.60938 L37.3647,3.60938 Z"/>
      <path fill="#FFF" d="M44.0635,6.82617 L43.2437,6.82617 L43.2437,4.25244 C43.2437,3.39209 42.8722,2.9375 42.2477,2.9375 C41.7908,2.9375 41.4095,3.21973 41.238,3.63574 C41.1792,3.77393 41.1624,3.94336 41.1624,4.11279 L41.1624,6.82617 L40.3426,6.82617 L40.3426,3.05127 C40.3426,2.61133 40.3258,2.22266 40.284,1.50146 L41.0282,1.50146 L41.0702,2.40967 L41.0954,2.40967 C41.3158,1.82959 41.9151,1.35059 42.6493,1.35059 C43.6168,1.35059 44.0635,2.10303 44.0635,3.17285 L44.0635,6.82617 Z"/>
    </g>
    <g transform="translate(42.75 11)">
      <path fill="#FFF" d="M0.76416,0.432617 L2.99072,0.432617 C4.1376,0.432617 4.87488,1.00879 4.87488,2.05762 C4.87488,2.75391 4.50624,3.28711 3.85824,3.48389 L3.85824,3.50879 C4.3584,3.65723 4.7856,4.24512 4.7856,5.05371 C4.7856,6.24609 3.9744,6.82617 2.7696,6.82617 L0.76416,6.82617 L0.76416,0.432617 Z M1.6416,3.06543 L2.8272,3.06543 C3.6384,3.06543 3.99744,2.67676 3.99744,2.10498 C3.99744,1.44629 3.5568,1.16699 2.8272,1.16699 L1.6416,1.16699 L1.6416,3.06543 Z M1.6416,6.0918 L2.9136,6.0918 C3.7824,6.0918 4.2,5.62793 4.2,4.99414 C4.2,4.31055 3.7248,3.84668 2.8272,3.84668 L1.6416,3.84668 L1.6416,6.0918 Z"/>
      <path fill="#FFF" d="M6.09504,1.50146 L7.0704,1.50146 L7.0704,2.40967 L6.09504,2.40967 L6.09504,5.02246 C6.09504,5.67285 6.28224,5.97803 6.7248,5.97803 C6.91968,5.97803 7.05504,5.95312 7.17312,5.92822 L7.20576,6.75732 C7.01856,6.83203 6.72384,6.88965 6.34752,6.88965 C5.88,6.88965 5.52096,6.73291 5.30112,6.47852 C5.04,6.19922 4.93824,5.74365 4.93824,5.14746 L4.93824,2.40967 L4.35744,2.40967 L4.35744,1.50146 L4.93824,1.50146 L4.93824,0.407227 L6.09504,0.0371094 L6.09504,1.50146 Z"/>
      <path fill="#FFF" d="M8.2272,4.15137 C8.2272,6.03516 9.4512,6.97705 10.6416,6.97705 C11.9328,6.97705 12.9744,5.93652 12.9744,4.23584 C12.9744,2.43408 11.8824,1.35059 10.5576,1.35059 C9.2144,1.35059 8.2272,2.40869 8.2272,4.15137 Z M12.0768,4.19238 C12.0768,5.46436 11.4,6.30908 10.6032,6.30908 C9.8064,6.30908 9.1152,5.47266 9.1152,4.15137 C9.1152,3.05957 9.624,2.01904 10.5936,2.01904 C11.5632,2.01904 12.0768,3.01709 12.0768,4.19238 Z"/>
      <path fill="#FFF" d="M14.1456,1.50146 L15.0624,1.50146 L15.0624,2.40967 L14.1456,2.40967 L14.1456,5.02246 C14.1456,5.67285 14.3328,5.97803 14.7744,5.97803 C14.9712,5.97803 15.1056,5.95312 15.2256,5.92822 L15.2592,6.75732 C15.072,6.83203 14.7744,6.88965 14.4,6.88965 C13.9328,6.88965 13.5744,6.73291 13.3536,6.47852 C13.0944,6.19922 12.9936,5.74365 12.9936,5.14746 L12.9936,2.40967 L12.4128,2.40967 L12.4128,1.50146 L12.9936,1.50146 L12.9936,0.407227 L14.1456,0.0371094 L14.1456,1.50146 Z"/>
      <path fill="#FFF" d="M21.5232,4.15137 C21.5232,6.03516 20.2992,6.97705 19.1088,6.97705 C17.8176,6.97705 16.776,5.93652 16.776,4.23584 C16.776,2.43408 17.8704,1.35059 19.1952,1.35059 C20.5392,1.35059 21.5232,2.40869 21.5232,4.15137 Z M17.6736,4.19238 C17.6736,5.46436 18.3504,6.30908 19.1472,6.30908 C19.944,6.30908 20.6352,5.47266 20.6352,4.15137 C20.6352,3.05957 20.1264,2.01904 19.1568,2.01904 C18.1872,2.01904 17.6736,3.01709 17.6736,4.19238 Z"/>
      <path fill="#FFF" d="M22.6944,1.50146 L23.5152,1.50146 L23.5152,3.05957 L23.5392,3.05957 C23.6496,2.83789 23.8272,2.63281 24.0496,2.47168 C24.272,2.31055 24.5504,2.21777 24.8544,2.21777 C25.6064,2.21777 26.4192,2.78223 26.4192,4.15137 L26.4192,6.82617 L25.5984,6.82617 L25.5984,4.25244 C25.5984,3.39209 25.2272,2.9375 24.6016,2.9375 C24.1456,2.9375 23.7632,3.21973 23.5904,3.63574 C23.5328,3.77393 23.5152,3.94336 23.5152,4.11279 L23.5152,6.82617 L22.6944,6.82617 L22.6944,1.50146 Z"/>
      <path fill="#FFF" d="M32.9376,0.188477 L32.9376,5.76074 C32.9376,6.13281 32.9376,6.55713 32.9712,6.82617 L32.2272,6.82617 L32.1856,5.91797 L32.16,5.91797 C31.8912,6.5 31.2752,6.97705 30.4464,6.97705 C29.2544,6.97705 28.3328,5.93652 28.3328,4.23584 C28.3328,2.36426 29.3376,1.35059 30.5136,1.35059 C31.2752,1.35059 31.8144,1.73828 32.0352,2.18555 L32.0592,2.18555 L32.0592,0.188477 L32.9376,0.188477 Z M32.0592,3.27344 C32.0592,3.13525 32.0416,3.00537 32.0176,2.88379 C31.872,2.38867 31.4144,2.02393 30.8496,2.02393 C30.0384,2.02393 29.2272,2.70469 29.2272,4.19238 C29.2272,5.53857 29.9536,6.27637 30.8256,6.27637 C31.4144,6.27637 31.8976,5.89599 32.0256,5.33154 C32.0592,5.21826 32.0752,5.08838 32.0752,4.95019 L32.0752,3.27344 L32.0592,3.27344 Z"/>
      <path fill="#FFF" d="M39.7664,4.15137 C39.7664,6.03516 38.5424,6.97705 37.352,6.97705 C36.0608,6.97705 35.0192,5.93652 35.0192,4.23584 C35.0192,2.43408 36.1136,1.35059 37.4384,1.35059 C38.7824,1.35059 39.7664,2.40869 39.7664,4.15137 Z M35.9168,4.19238 C35.9168,5.46436 36.5936,6.30908 37.3904,6.30908 C38.1872,6.30908 38.8784,5.47266 38.8784,4.15137 C38.8784,3.05957 38.3696,2.01904 37.4,2.01904 C36.4304,2.01904 35.9168,3.01709 35.9168,4.19238 Z"/>
      <path fill="#FFF" d="M40.9376,1.50146 L41.7584,1.50146 L41.7584,3.05957 L41.7824,3.05957 C41.8928,2.83789 42.0704,2.63281 42.2928,2.47168 C42.5152,2.31055 42.7936,2.21777 43.0976,2.21777 C43.8496,2.21777 44.6624,2.78223 44.6624,4.15137 L44.6624,6.82617 L43.8416,6.82617 L43.8416,4.25244 C43.8416,3.39209 43.4704,2.9375 42.8448,2.9375 C42.3888,2.9375 42.0064,3.21973 41.8336,3.63574 C41.776,3.77393 41.7584,3.94336 41.7584,4.11279 L41.7584,6.82617 L40.9376,6.82617 L40.9376,1.50146 Z"/>
      <path fill="#FFF" d="M50.5664,0.188477 L50.5664,5.76074 C50.5664,6.13281 50.5664,6.55713 50.6,6.82617 L49.856,6.82617 L49.8144,5.91797 L49.7888,5.91797 C49.52,6.5 48.904,6.97705 48.0752,6.97705 C46.8832,6.97705 45.9616,5.93652 45.9616,4.23584 C45.9616,2.36426 46.9664,1.35059 48.1424,1.35059 C48.904,1.35059 49.4432,1.73828 49.664,2.18555 L49.688,2.18555 L49.688,0.188477 L50.5664,0.188477 Z M49.688,3.27344 C49.688,3.13525 49.6704,3.00537 49.6464,2.88379 C49.5008,2.38867 49.0432,2.02393 48.4784,2.02393 C47.6672,2.02393 46.856,2.70469 46.856,4.19238 C46.856,5.53857 47.5824,6.27637 48.4544,6.27637 C49.0432,6.27637 49.5264,5.89599 49.6544,5.33154 C49.688,5.21826 49.704,5.08838 49.704,4.95019 L49.704,3.27344 L49.688,3.27344 Z"/>
    </g>
  </g>
</svg>