<?xml version="1.0" encoding="utf-8"?>
<svg xmlns="http://www.w3.org/2000/svg" width="135" height="40" viewBox="0 0 135 40">
  <g fill="none" fill-rule="evenodd">
    <rect width="135" height="40" fill="#000" rx="5"/>
    <path fill="#A6A6A6" d="M130,0.8 C132.2,0.8 134,2.6 134,4.8 L134,35.2 C134,37.4 132.2,39.2 130,39.2 L5,39.2 C2.8,39.2 1,37.4 1,35.2 L1,4.8 C1,2.6 2.8,0.8 5,0.8 L130,0.8 Z M130,0 L5,0 C2.2,0 0,2.3 0,5 L0,35 C0,37.8 2.2,40 5,40 L130,40 C132.8,40 135,37.8 135,35 L135,5 C135,2.3 132.8,0 130,0 Z"/>
    <path fill="#FFF" stroke="#FFF" stroke-width=".2" d="M47.42,10.24 C47.42,11.3 47.12,12.12 46.52,12.72 C45.84,13.44 44.92,13.8 43.82,13.8 C42.76,13.8 41.84,13.44 41.12,12.72 C40.4,12 40.04,11.08 40.04,10 C40.04,8.92 40.4,8 41.12,7.28 C41.84,6.56 42.76,6.2 43.82,6.2 C44.34,6.2 44.84,6.32 45.32,6.54 C45.8,6.76 46.18,7.08 46.48,7.46 L45.76,8.18 C45.28,7.62 44.64,7.34 43.82,7.34 C43.06,7.34 42.4,7.62 41.86,8.16 C41.32,8.7 41.06,9.36 41.06,10.16 C41.06,10.96 41.32,11.62 41.86,12.16 C42.4,12.7 43.06,12.98 43.82,12.98 C44.6,12.98 45.26,12.7 45.78,12.16 C46.12,11.82 46.32,11.36 46.38,10.76 L43.82,10.76 L43.82,9.64 L47.4,9.64 C47.42,9.84 47.42,10.04 47.42,10.24 Z"/>
    <path fill="#FFF" stroke="#FFF" stroke-width=".2" d="M52.66,7.48 L49.76,7.48 L49.76,9.8 L52.36,9.8 L52.36,10.92 L49.76,10.92 L49.76,13.24 L52.66,13.24 L52.66,14.38 L48.64,14.38 L48.64,6.34 L52.66,6.34 L52.66,7.48 Z"/>
    <path fill="#FFF" stroke="#FFF" stroke-width=".2" d="M56.5,14.38 L55.38,14.38 L55.38,7.48 L53.64,7.48 L53.64,6.34 L58.24,6.34 L58.24,7.48 L56.5,7.48 L56.5,14.38 Z"/>
    <path fill="#FFF" stroke="#FFF" stroke-width=".2" d="M62.02,14.38 L62.02,6.34 L63.14,6.34 L63.14,14.38 L62.02,14.38 Z"/>
    <path fill="#FFF" stroke="#FFF" stroke-width=".2" d="M67.58,14.38 L66.46,14.38 L66.46,7.48 L64.72,7.48 L64.72,6.34 L69.32,6.34 L69.32,7.48 L67.58,7.48 L67.58,14.38 Z"/>
    <path fill="#FFF" stroke="#FFF" stroke-width=".2" d="M79.14,13.36 C78.44,14.08 77.52,14.44 76.4,14.44 C75.28,14.44 74.36,14.08 73.66,13.36 C72.96,12.64 72.6,11.74 72.6,10.64 C72.6,9.54 72.96,8.64 73.66,7.92 C74.36,7.2 75.28,6.84 76.4,6.84 C77.5,6.84 78.42,7.2 79.12,7.92 C79.82,8.64 80.18,9.54 80.18,10.64 C80.18,11.74 79.84,12.64 79.14,13.36 Z M74.5,12.56 C75,13.08 75.64,13.34 76.4,13.34 C77.16,13.34 77.8,13.08 78.3,12.56 C78.8,12.04 79.06,11.4 79.06,10.64 C79.06,9.88 78.8,9.24 78.3,8.72 C77.8,8.2 77.16,7.94 76.4,7.94 C75.64,7.94 75,8.2 74.5,8.72 C74,9.24 73.74,9.88 73.74,10.64 C73.74,11.4 74,12.04 74.5,12.56 Z"/>
    <path fill="#FFF" stroke="#FFF" stroke-width=".2" d="M81.7,14.38 L81.7,6.34 L83.04,6.34 L86.7,12.42 L86.7,6.34 L87.82,6.34 L87.82,14.38 L86.64,14.38 L82.82,8.02 L82.82,14.38 L81.7,14.38 Z"/>
    <path fill="#FFF" d="M68.14,21.75 C65.4,21.75 63.2,23.79 63.2,26.6 C63.2,29.38 65.4,31.44 68.14,31.44 C70.88,31.44 73.08,29.38 73.08,26.6 C73.08,23.79 70.88,21.75 68.14,21.75 Z M68.14,29.5 C66.58,29.5 65.32,28.29 65.32,26.6 C65.32,24.88 66.58,23.69 68.14,23.69 C69.7,23.69 70.96,24.88 70.96,26.6 C70.96,28.29 69.7,29.5 68.14,29.5 Z M58.68,21.75 C55.94,21.75 53.74,23.79 53.74,26.6 C53.74,29.38 55.94,31.44 58.68,31.44 C61.42,31.44 63.62,29.38 63.62,26.6 C63.62,23.79 61.42,21.75 58.68,21.75 Z M58.68,29.5 C57.12,29.5 55.86,28.29 55.86,26.6 C55.86,24.88 57.12,23.69 58.68,23.69 C60.24,23.69 61.5,24.88 61.5,26.6 C61.5,28.29 60.24,29.5 58.68,29.5 Z M47.38,23.29 L47.38,25.36 L52.26,25.36 C52.1,26.67 51.64,27.64 50.96,28.32 C50.14,29.14 48.92,30.04 47.38,30.04 C44.64,30.04 42.46,27.78 42.46,25.04 C42.46,22.3 44.64,20.04 47.38,20.04 C48.94,20.04 50.14,20.7 51.02,21.52 L52.5,20.04 C51.28,18.88 49.68,18 47.38,18 C43.5,18 40.22,21.16 40.22,25.04 C40.22,28.92 43.5,32.08 47.38,32.08 C49.64,32.08 51.28,31.36 52.56,29.98 C53.88,28.66 54.28,26.76 54.28,25.22 C54.28,24.72 54.24,24.26 54.16,23.86 L47.38,23.86 L47.38,23.29 Z M93.1,24.92 C92.68,23.72 91.4,21.75 88.94,21.75 C86.5,21.75 84.46,23.69 84.46,26.6 C84.46,29.31 86.48,31.44 89.14,31.44 C91.28,31.44 92.68,30.12 93.24,29.22 L91.58,28.08 C91,28.98 90.2,29.5 89.14,29.5 C88.08,29.5 87.28,29.02 86.76,28.02 L93.34,25.26 L93.1,24.92 Z M86.36,26.34 C86.3,24.48 87.78,23.66 89,23.66 C89.94,23.66 90.72,24.1 90.98,24.74 L86.36,26.34 Z M82.58,31 L84.7,31 L84.7,18.48 L82.58,18.48 L82.58,31 Z M79.56,22.96 L79.48,22.96 C79,22.38 78.16,21.75 77,21.75 C74.64,21.75 72.46,23.83 72.46,26.62 C72.46,29.38 74.64,31.44 77,31.44 C78.16,31.44 79,30.81 79.48,30.21 L79.56,30.21 L79.56,30.9 C79.56,32.76 78.56,33.76 77.04,33.76 C75.8,33.76 75.02,32.84 74.7,32.08 L72.86,32.84 C73.36,34.08 74.7,35.7 77.04,35.7 C79.54,35.7 81.56,34.18 81.56,30.6 L81.56,22.02 L79.56,22.02 L79.56,22.96 Z M77.2,29.5 C75.64,29.5 74.58,28.27 74.58,26.62 C74.58,24.95 75.64,23.69 77.2,23.69 C78.74,23.69 79.68,24.95 79.68,26.62 C79.68,28.27 78.74,29.5 77.2,29.5 Z M101.8,18.48 L97.3,18.48 L97.3,31 L99.42,31 L99.42,26.02 L101.8,26.02 C104.08,26.02 106.3,24.44 106.3,22.25 C106.3,20.06 104.08,18.48 101.8,18.48 Z M101.84,24.08 L99.42,24.08 L99.42,20.42 L101.84,20.42 C103.26,20.42 104.18,21.54 104.18,22.25 C104.18,22.94 103.26,24.08 101.84,24.08 Z M113.98,21.73 C112.5,21.73 110.96,22.33 110.28,23.89 L112.14,24.69 C112.56,23.89 113.28,23.67 114.02,23.67 C115.08,23.67 116.16,24.33 116.18,25.47 L116.18,25.63 C115.78,25.41 114.98,25.07 114.04,25.07 C112.02,25.07 109.96,26.13 109.96,28.21 C109.96,30.13 111.6,31.42 113.42,31.42 C114.8,31.42 115.58,30.78 116.08,30.03 L116.16,30.03 L116.16,31 L118.2,31 L118.2,25.67 C118.2,23.07 116.38,21.73 113.98,21.73 Z M113.72,29.5 C113.02,29.5 111.98,29.14 111.98,28.25 C111.98,27.09 113.28,26.66 114.38,26.66 C115.36,26.66 115.78,26.84 116.18,27.09 C116.06,28.5 114.94,29.5 113.72,29.5 Z M129.94,22.02 L127.56,27.96 L127.48,27.96 L125.02,22.02 L122.72,22.02 L126.28,30.44 L124.1,35.28 L126.34,35.28 L131.98,22.02 L129.94,22.02 Z M112.88,31 L114.98,31 L114.98,18.48 L112.88,18.48 L112.88,31 Z"/>
    <path fill="#FFF" d="M12.24,7.45 L12.24,32.58 C12.24,33.08 12.64,33.48 13.14,33.48 L16.84,33.48 C17.34,33.48 17.74,33.08 17.74,32.58 L17.74,7.45 C17.74,6.95 17.34,6.55 16.84,6.55 L13.14,6.55 C12.64,6.55 12.24,6.95 12.24,7.45 Z"/>
    <path fill="#00F076" d="M27.24,20 L7.24,0 C6.84,-0.4 6.24,-0.4 5.84,0 L27.24,21.4 L27.24,20 Z"/>
    <path fill="#00E975" d="M5.84,40 C6.24,40.4 6.84,40.4 7.24,40 L27.24,20 L27.24,21.4 L5.84,40 Z"/>
    <path fill="#00E975" d="M27.74,21.4 L33.04,16.1 C33.94,15.2 33.94,13.7 33.04,12.8 L27.74,7.5 L21.14,14.1 L27.74,21.4 Z"/>
    <path fill="#FFF" d="M7.24,0 C6.84,0.4 6.64,1 6.64,1.5 L6.64,38.5 C6.64,39 6.84,39.6 7.24,40 L28.64,18.6 L7.24,0 Z"/>
    <path fill="#FFD900" d="M27.74,21.4 L33.04,16.1 C33.94,15.2 33.94,13.7 33.04,12.8 L27.74,7.5 L21.14,14.1 L27.74,21.4 Z"/>
    <path fill="#FF3B30" d="M27.24,20 L7.24,0 C6.84,-0.4 6.24,-0.4 5.84,0 L27.24,21.4 L27.24,20 Z"/>
    <path fill="#00C3FF" d="M5.84,40 C6.24,40.4 6.84,40.4 7.24,40 L27.24,20 L27.24,21.4 L5.84,40 Z"/>
  </g>
</svg>